<?xml version="1.0" encoding="UTF-8" standalone="no"?>
<!DOCTYPE svg PUBLIC "-//W3C//DTD SVG 1.1//EN"
 "http://www.w3.org/Graphics/SVG/1.1/DTD/svg11.dtd">
<!-- Generated by graphviz version 9.0.0 (20230911.1827)
 -->
<!-- Title: G Pages: 1 -->
<svg width="1917pt" height="133pt"
 viewBox="0.00 0.00 1917.25 133.00" xmlns="http://www.w3.org/2000/svg" xmlns:xlink="http://www.w3.org/1999/xlink">
<g id="graph0" class="graph" transform="scale(1 1) rotate(0) translate(4 129)">
<title>G</title>
<polygon fill="white" stroke="none" points="-4,4 -4,-129 1913.25,-129 1913.25,4 -4,4"/>
<!-- EI -->
<g id="node1" class="node">
<title>EI</title>
<polygon fill="none" stroke="black" points="118,-113 0,-113 0,-77 118,-77 118,-113"/>
<text text-anchor="middle" x="59" y="-90.33" font-family="Times,serif" font-size="14.00">Encoder Input</text>
</g>
<!-- EE -->
<g id="node2" class="node">
<title>EE</title>
<polygon fill="none" stroke="black" points="315.5,-113 154,-113 154,-77 315.5,-77 315.5,-113"/>
<text text-anchor="middle" x="234.75" y="-90.33" font-family="Times,serif" font-size="14.00">Encoder Embedding</text>
</g>
<!-- EI&#45;&gt;EE -->
<g id="edge1" class="edge">
<title>EI&#45;&gt;EE</title>
<path fill="none" stroke="black" d="M118.34,-95C126.05,-95 134.09,-95 142.19,-95"/>
<polygon fill="black" stroke="black" points="142.13,-98.5 152.13,-95 142.13,-91.5 142.13,-98.5"/>
</g>
<!-- EL1 -->
<g id="node3" class="node">
<title>EL1</title>
<polygon fill="none" stroke="black" points="486.75,-113 351.5,-113 351.5,-77 486.75,-77 486.75,-113"/>
<text text-anchor="middle" x="419.12" y="-90.33" font-family="Times,serif" font-size="14.00">Encoder LSTM 1</text>
</g>
<!-- EE&#45;&gt;EL1 -->
<g id="edge2" class="edge">
<title>EE&#45;&gt;EL1</title>
<path fill="none" stroke="black" d="M315.74,-95C323.65,-95 331.67,-95 339.57,-95"/>
<polygon fill="black" stroke="black" points="339.5,-98.5 349.5,-95 339.5,-91.5 339.5,-98.5"/>
</g>
<!-- EO1 -->
<g id="node4" class="node">
<title>EO1</title>
<polygon fill="none" stroke="black" points="693.25,-113 542.25,-113 542.25,-77 693.25,-77 693.25,-113"/>
<text text-anchor="middle" x="617.75" y="-90.33" font-family="Times,serif" font-size="14.00">Encoder Outputs 1</text>
</g>
<!-- EL1&#45;&gt;EO1 -->
<g id="edge3" class="edge">
<title>EL1&#45;&gt;EO1</title>
<path fill="none" stroke="black" d="M487.24,-95C501.11,-95 515.91,-95 530.35,-95"/>
<polygon fill="black" stroke="black" points="530.32,-98.5 540.32,-95 530.32,-91.5 530.32,-98.5"/>
</g>
<!-- EL2 -->
<g id="node5" class="node">
<title>EL2</title>
<polygon fill="none" stroke="black" points="884,-113 748.75,-113 748.75,-77 884,-77 884,-113"/>
<text text-anchor="middle" x="816.38" y="-90.33" font-family="Times,serif" font-size="14.00">Encoder LSTM 2</text>
</g>
<!-- EO1&#45;&gt;EL2 -->
<g id="edge4" class="edge">
<title>EO1&#45;&gt;EL2</title>
<path fill="none" stroke="black" d="M693.65,-95C707.86,-95 722.77,-95 737.09,-95"/>
<polygon fill="black" stroke="black" points="736.91,-98.5 746.91,-95 736.91,-91.5 736.91,-98.5"/>
</g>
<!-- EO2 -->
<g id="node6" class="node">
<title>EO2</title>
<polygon fill="none" stroke="black" points="1090.5,-113 939.5,-113 939.5,-77 1090.5,-77 1090.5,-113"/>
<text text-anchor="middle" x="1015" y="-90.33" font-family="Times,serif" font-size="14.00">Encoder Outputs 2</text>
</g>
<!-- EL2&#45;&gt;EO2 -->
<g id="edge5" class="edge">
<title>EL2&#45;&gt;EO2</title>
<path fill="none" stroke="black" d="M884.49,-95C898.36,-95 913.16,-95 927.6,-95"/>
<polygon fill="black" stroke="black" points="927.57,-98.5 937.57,-95 927.57,-91.5 927.57,-98.5"/>
</g>
<!-- ES -->
<g id="node7" class="node">
<title>ES</title>
<polygon fill="none" stroke="black" points="1268.88,-125 1150.88,-125 1150.88,-89 1268.88,-89 1268.88,-125"/>
<text text-anchor="middle" x="1209.88" y="-102.33" font-family="Times,serif" font-size="14.00">Encoder State</text>
</g>
<!-- EO2&#45;&gt;ES -->
<g id="edge6" class="edge">
<title>EO2&#45;&gt;ES</title>
<path fill="none" stroke="black" d="M1090.85,-99.66C1106.78,-100.65 1123.54,-101.69 1139.27,-102.67"/>
<polygon fill="black" stroke="black" points="1138.81,-106.15 1149,-103.28 1139.24,-99.16 1138.81,-106.15"/>
</g>
<!-- A -->
<g id="node14" class="node">
<title>A</title>
<polygon fill="none" stroke="black" points="1273.75,-71 1146,-71 1146,-35 1273.75,-35 1273.75,-71"/>
<text text-anchor="middle" x="1209.88" y="-48.33" font-family="Times,serif" font-size="14.00">Attention Layer</text>
</g>
<!-- EO2&#45;&gt;A -->
<g id="edge13" class="edge">
<title>EO2&#45;&gt;A</title>
<path fill="none" stroke="black" d="M1090.85,-78.7C1105.28,-75.56 1120.38,-72.27 1134.79,-69.13"/>
<polygon fill="black" stroke="black" points="1135.14,-72.64 1144.17,-67.09 1133.65,-65.8 1135.14,-72.64"/>
</g>
<!-- DI -->
<g id="node8" class="node">
<title>DI</title>
<polygon fill="none" stroke="black" points="118,-36 0,-36 0,0 118,0 118,-36"/>
<text text-anchor="middle" x="59" y="-13.32" font-family="Times,serif" font-size="14.00">Decoder Input</text>
</g>
<!-- DE -->
<g id="node9" class="node">
<title>DE</title>
<polygon fill="none" stroke="black" points="315.5,-36 154,-36 154,0 315.5,0 315.5,-36"/>
<text text-anchor="middle" x="234.75" y="-13.32" font-family="Times,serif" font-size="14.00">Decoder Embedding</text>
</g>
<!-- DI&#45;&gt;DE -->
<g id="edge7" class="edge">
<title>DI&#45;&gt;DE</title>
<path fill="none" stroke="black" d="M118.34,-18C126.05,-18 134.09,-18 142.19,-18"/>
<polygon fill="black" stroke="black" points="142.13,-21.5 152.13,-18 142.13,-14.5 142.13,-21.5"/>
</g>
<!-- DL1 -->
<g id="node10" class="node">
<title>DL1</title>
<polygon fill="none" stroke="black" points="486.75,-36 351.5,-36 351.5,0 486.75,0 486.75,-36"/>
<text text-anchor="middle" x="419.12" y="-13.32" font-family="Times,serif" font-size="14.00">Decoder LSTM 1</text>
</g>
<!-- DE&#45;&gt;DL1 -->
<g id="edge8" class="edge">
<title>DE&#45;&gt;DL1</title>
<path fill="none" stroke="black" d="M315.74,-18C323.65,-18 331.67,-18 339.57,-18"/>
<polygon fill="black" stroke="black" points="339.5,-21.5 349.5,-18 339.5,-14.5 339.5,-21.5"/>
</g>
<!-- DLO1 -->
<g id="node11" class="node">
<title>DLO1</title>
<polygon fill="none" stroke="black" points="712.75,-36 522.75,-36 522.75,0 712.75,0 712.75,-36"/>
<text text-anchor="middle" x="617.75" y="-13.32" font-family="Times,serif" font-size="14.00">Decoder LSTM Output 1</text>
</g>
<!-- DL1&#45;&gt;DLO1 -->
<g id="edge9" class="edge">
<title>DL1&#45;&gt;DLO1</title>
<path fill="none" stroke="black" d="M487.24,-18C494.96,-18 502.95,-18 511.02,-18"/>
<polygon fill="black" stroke="black" points="510.93,-21.5 520.93,-18 510.93,-14.5 510.93,-21.5"/>
</g>
<!-- DL2 -->
<g id="node12" class="node">
<title>DL2</title>
<polygon fill="none" stroke="black" points="884,-36 748.75,-36 748.75,0 884,0 884,-36"/>
<text text-anchor="middle" x="816.38" y="-13.32" font-family="Times,serif" font-size="14.00">Decoder LSTM 2</text>
</g>
<!-- DLO1&#45;&gt;DL2 -->
<g id="edge10" class="edge">
<title>DLO1&#45;&gt;DL2</title>
<path fill="none" stroke="black" d="M713.03,-18C721.04,-18 729.09,-18 736.96,-18"/>
<polygon fill="black" stroke="black" points="736.83,-21.5 746.83,-18 736.83,-14.5 736.83,-21.5"/>
</g>
<!-- DLO2 -->
<g id="node13" class="node">
<title>DLO2</title>
<polygon fill="none" stroke="black" points="1110,-36 920,-36 920,0 1110,0 1110,-36"/>
<text text-anchor="middle" x="1015" y="-13.32" font-family="Times,serif" font-size="14.00">Decoder LSTM Output 2</text>
</g>
<!-- DL2&#45;&gt;DLO2 -->
<g id="edge11" class="edge">
<title>DL2&#45;&gt;DLO2</title>
<path fill="none" stroke="black" d="M884.49,-18C892.21,-18 900.2,-18 908.27,-18"/>
<polygon fill="black" stroke="black" points="908.18,-21.5 918.18,-18 908.18,-14.5 908.18,-21.5"/>
</g>
<!-- DLO2&#45;&gt;A -->
<g id="edge12" class="edge">
<title>DLO2&#45;&gt;A</title>
<path fill="none" stroke="black" d="M1110.46,-35.14C1118.48,-36.6 1126.51,-38.05 1134.34,-39.47"/>
<polygon fill="black" stroke="black" points="1133.69,-42.91 1144.15,-41.26 1134.94,-36.03 1133.69,-42.91"/>
</g>
<!-- C -->
<g id="node16" class="node">
<title>C</title>
<polygon fill="none" stroke="black" points="1602,-48 1483.25,-48 1483.25,-12 1602,-12 1602,-48"/>
<text text-anchor="middle" x="1542.62" y="-25.32" font-family="Times,serif" font-size="14.00">Concatenation</text>
</g>
<!-- DLO2&#45;&gt;C -->
<g id="edge16" class="edge">
<title>DLO2&#45;&gt;C</title>
<path fill="none" stroke="black" d="M1110.24,-19.1C1197.61,-20.28 1331.24,-22.47 1447.25,-26 1455.1,-26.24 1463.33,-26.53 1471.5,-26.84"/>
<polygon fill="black" stroke="black" points="1471.34,-30.34 1481.47,-27.24 1471.62,-23.34 1471.34,-30.34"/>
</g>
<!-- AO -->
<g id="node15" class="node">
<title>AO</title>
<polygon fill="none" stroke="black" points="1447.25,-71 1309.75,-71 1309.75,-35 1447.25,-35 1447.25,-71"/>
<text text-anchor="middle" x="1378.5" y="-48.33" font-family="Times,serif" font-size="14.00">Attention Output</text>
</g>
<!-- A&#45;&gt;AO -->
<g id="edge14" class="edge">
<title>A&#45;&gt;AO</title>
<path fill="none" stroke="black" d="M1273.87,-53C1281.76,-53 1289.91,-53 1298.02,-53"/>
<polygon fill="black" stroke="black" points="1297.89,-56.5 1307.89,-53 1297.89,-49.5 1297.89,-56.5"/>
</g>
<!-- AO&#45;&gt;C -->
<g id="edge15" class="edge">
<title>AO&#45;&gt;C</title>
<path fill="none" stroke="black" d="M1447.32,-43.38C1455.34,-42.24 1463.54,-41.08 1471.59,-39.94"/>
<polygon fill="black" stroke="black" points="1471.93,-43.42 1481.34,-38.55 1470.95,-36.49 1471.93,-43.42"/>
</g>
<!-- D -->
<g id="node18" class="node">
<title>D</title>
<polygon fill="none" stroke="black" points="1743.25,-48 1638,-48 1638,-12 1743.25,-12 1743.25,-48"/>
<text text-anchor="middle" x="1690.62" y="-25.32" font-family="Times,serif" font-size="14.00">Dense Layer</text>
</g>
<!-- C&#45;&gt;D -->
<g id="edge17" class="edge">
<title>C&#45;&gt;D</title>
<path fill="none" stroke="black" d="M1602.17,-30C1610.15,-30 1618.37,-30 1626.43,-30"/>
<polygon fill="black" stroke="black" points="1626.16,-33.5 1636.16,-30 1626.16,-26.5 1626.16,-33.5"/>
</g>
<!-- DO -->
<g id="node17" class="node">
<title>DO</title>
<polygon fill="none" stroke="black" points="1909.25,-48 1779.25,-48 1779.25,-12 1909.25,-12 1909.25,-48"/>
<text text-anchor="middle" x="1844.25" y="-25.32" font-family="Times,serif" font-size="14.00">Decoder Output</text>
</g>
<!-- D&#45;&gt;DO -->
<g id="edge18" class="edge">
<title>D&#45;&gt;DO</title>
<path fill="none" stroke="black" d="M1743.38,-30C1751.14,-30 1759.27,-30 1767.4,-30"/>
<polygon fill="black" stroke="black" points="1767.34,-33.5 1777.34,-30 1767.34,-26.5 1767.34,-33.5"/>
</g>
</g>
</svg>
