<?xml version="1.0" encoding="UTF-8" standalone="no"?>
<!DOCTYPE svg PUBLIC "-//W3C//DTD SVG 1.1//EN"
 "http://www.w3.org/Graphics/SVG/1.1/DTD/svg11.dtd">
<!-- Generated by graphviz version 9.0.0 (20230911.1827)
 -->
<!-- Title: G Pages: 1 -->
<svg width="690pt" height="360pt"
 viewBox="0.00 0.00 690.00 359.75" xmlns="http://www.w3.org/2000/svg" xmlns:xlink="http://www.w3.org/1999/xlink">
<g id="graph0" class="graph" transform="scale(1 1) rotate(0) translate(4 355.75)">
<title>G</title>
<polygon fill="white" stroke="none" points="-4,4 -4,-355.75 686,-355.75 686,4 -4,4"/>
<g id="clust1" class="cluster">
<title>cluster_encoder</title>
<polygon fill="none" stroke="blue" points="69,-266.5 69,-343.75 599,-343.75 599,-266.5 69,-266.5"/>
<text text-anchor="middle" x="334" y="-326.45" font-family="Times,serif" font-size="14.00">Encoder</text>
</g>
<g id="clust2" class="cluster">
<title>cluster_decoder</title>
<polygon fill="none" stroke="green" points="8,-8 8,-231.25 674,-231.25 674,-8 8,-8"/>
<text text-anchor="middle" x="341" y="-213.95" font-family="Times,serif" font-size="14.00">Decoder</text>
</g>
<!-- E_Input -->
<g id="node1" class="node">
<title>E_Input</title>
<polygon fill="none" stroke="black" points="591,-310.5 359,-310.5 359,-274.5 591,-274.5 591,-310.5"/>
<text text-anchor="middle" x="475" y="-287.82" font-family="Times,serif" font-size="14.00">Input Layer (AAVE Sentences)</text>
</g>
<!-- E_Embed -->
<g id="node2" class="node">
<title>E_Embed</title>
<polygon fill="none" stroke="black" points="341.38,-310.5 198.62,-310.5 198.62,-274.5 341.38,-274.5 341.38,-310.5"/>
<text text-anchor="middle" x="270" y="-287.82" font-family="Times,serif" font-size="14.00">Embedding Layer</text>
</g>
<!-- E_LSTM -->
<g id="node3" class="node">
<title>E_LSTM</title>
<polygon fill="none" stroke="black" points="180.5,-310.5 77.5,-310.5 77.5,-274.5 180.5,-274.5 180.5,-310.5"/>
<text text-anchor="middle" x="129" y="-287.82" font-family="Times,serif" font-size="14.00">LSTM Layer</text>
</g>
<!-- D_LSTM -->
<g id="node6" class="node">
<title>D_LSTM</title>
<polygon fill="none" stroke="black" points="119.5,-198 16.5,-198 16.5,-162 119.5,-162 119.5,-198"/>
<text text-anchor="middle" x="68" y="-175.32" font-family="Times,serif" font-size="14.00">LSTM Layer</text>
</g>
<!-- E_LSTM&#45;&gt;D_LSTM -->
<g id="edge1" class="edge">
<title>E_LSTM&#45;&gt;D_LSTM</title>
<path fill="none" stroke="black" d="M93.34,-274.12C86.67,-269.3 80.48,-263.45 76.25,-256.5 67.76,-242.55 65.55,-224.42 65.54,-209.42"/>
<polygon fill="black" stroke="black" points="69.02,-209.83 65.87,-199.72 62.03,-209.6 69.02,-209.83"/>
<text text-anchor="middle" x="126.88" y="-243.2" font-family="Times,serif" font-size="14.00">Internal State</text>
</g>
<!-- D_Attention -->
<g id="node7" class="node">
<title>D_Attention</title>
<polygon fill="none" stroke="black" points="264.88,-198 137.12,-198 137.12,-162 264.88,-162 264.88,-198"/>
<text text-anchor="middle" x="201" y="-175.32" font-family="Times,serif" font-size="14.00">Attention Layer</text>
</g>
<!-- E_LSTM&#45;&gt;D_Attention -->
<g id="edge2" class="edge">
<title>E_LSTM&#45;&gt;D_Attention</title>
<path fill="none" stroke="black" d="M157.86,-274.35C164.54,-269.29 171.12,-263.26 176,-256.5 186.01,-242.63 192.19,-224.5 195.9,-209.49"/>
<polygon fill="black" stroke="black" points="199.31,-210.25 198.04,-199.73 192.48,-208.75 199.31,-210.25"/>
<text text-anchor="middle" x="260.62" y="-243.2" font-family="Times,serif" font-size="14.00">Sequence of Outputs</text>
</g>
<!-- D_Input -->
<g id="node4" class="node">
<title>D_Input</title>
<polygon fill="none" stroke="black" points="666.12,-198 443.88,-198 443.88,-162 666.12,-162 666.12,-198"/>
<text text-anchor="middle" x="555" y="-175.32" font-family="Times,serif" font-size="14.00">Input Layer (SAE Sentences)</text>
</g>
<!-- D_Embed -->
<g id="node5" class="node">
<title>D_Embed</title>
<polygon fill="none" stroke="black" points="425.38,-198 282.62,-198 282.62,-162 425.38,-162 425.38,-198"/>
<text text-anchor="middle" x="354" y="-175.32" font-family="Times,serif" font-size="14.00">Embedding Layer</text>
</g>
<!-- D_Concat -->
<g id="node8" class="node">
<title>D_Concat</title>
<polygon fill="none" stroke="black" points="221.12,-125 70.88,-125 70.88,-89 221.12,-89 221.12,-125"/>
<text text-anchor="middle" x="146" y="-102.33" font-family="Times,serif" font-size="14.00">Concatenate Layer</text>
</g>
<!-- D_LSTM&#45;&gt;D_Concat -->
<g id="edge4" class="edge">
<title>D_LSTM&#45;&gt;D_Concat</title>
<path fill="none" stroke="black" d="M86.88,-161.81C96.39,-153.16 108.1,-142.5 118.58,-132.96"/>
<polygon fill="black" stroke="black" points="120.86,-135.61 125.9,-126.29 116.15,-130.44 120.86,-135.61"/>
</g>
<!-- D_Attention&#45;&gt;D_Concat -->
<g id="edge3" class="edge">
<title>D_Attention&#45;&gt;D_Concat</title>
<path fill="none" stroke="black" d="M187.69,-161.81C181.2,-153.44 173.27,-143.2 166.07,-133.9"/>
<polygon fill="black" stroke="black" points="169.01,-131.99 160.12,-126.23 163.48,-136.27 169.01,-131.99"/>
</g>
<!-- D_Dense -->
<g id="node9" class="node">
<title>D_Dense</title>
<polygon fill="none" stroke="black" points="198.62,-52 93.38,-52 93.38,-16 198.62,-16 198.62,-52"/>
<text text-anchor="middle" x="146" y="-29.32" font-family="Times,serif" font-size="14.00">Dense Layer</text>
</g>
<!-- D_Concat&#45;&gt;D_Dense -->
<g id="edge5" class="edge">
<title>D_Concat&#45;&gt;D_Dense</title>
<path fill="none" stroke="black" d="M146,-88.81C146,-81.23 146,-72.1 146,-63.54"/>
<polygon fill="black" stroke="black" points="149.5,-63.54 146,-53.54 142.5,-63.54 149.5,-63.54"/>
</g>
</g>
</svg>
